<?xml version="1.0" encoding="UTF-8"?>
<svg width="240px" height="240px" viewBox="0 0 240 240" version="1.1" xmlns="http://www.w3.org/2000/svg" xmlns:xlink="http://www.w3.org/1999/xlink">
    <title>Specifications</title>
    <g id="Specifications" stroke="none" stroke-width="1" fill="none" fill-rule="evenodd">
        <g id="Group-9" transform="translate(3.000000, 3.000000)" stroke="#000000" stroke-width="2">
            <g id="Group-3" transform="translate(25.545852, 22.249208)">
                <polygon id="Path-156" points="61.2953971 4.31847739 71.2008558 26.2059342 77.6593886 23.3199512 75.0001993 44.1700058 53.6519457 35.6191911 61.2953971 30.9356722 51.0917031 9.69007731"></polygon>
                <circle id="Oval" cx="91.9650655" cy="94.2398748" r="38.8296943"></circle>
                <circle id="Oval" cx="91.9650655" cy="94.2398748" r="17.371179"></circle>
                <polygon id="Path-156" transform="translate(121.330652, 23.895040) rotate(45.000000) translate(-121.330652, -23.895040) " points="118.214242 3.54257681 128.236313 25.8987413 134.770879 22.9509566 132.080384 44.2475035 110.480809 35.5135779 118.214242 30.729764 107.890426 9.02920655"></polygon>
                <polygon id="Path-156" transform="translate(162.471616, 64.095770) rotate(90.000000) translate(-162.471616, -64.095770) " points="159.391467 44.1700058 169.296926 66.0574626 175.755459 63.1714796 173.096269 84.0215342 151.748016 75.4707195 159.391467 70.7872006 149.187773 49.5416057"></polygon>
                <polygon id="Path-156" transform="translate(163.100593, 121.330652) rotate(135.000000) translate(-163.100593, -121.330652) " points="159.984183 100.978189 170.006254 123.334353 176.54082 120.386569 173.850325 141.683115 152.25075 132.94919 159.984183 128.165376 149.660367 106.464818"></polygon>
                <polygon id="Path-156" transform="translate(122.620087, 162.191840) rotate(180.000000) translate(-122.620087, -162.191840) " points="119.539939 142.266076 129.445397 164.153532 135.90393 161.267549 133.244741 182.117604 111.896487 173.566789 119.539939 168.88327 109.336245 147.637676"></polygon>
                <polygon id="Path-156" transform="translate(65.664981, 163.100593) rotate(225.000000) translate(-65.664981, -163.100593) " points="62.5485714 142.74813 72.5706419 165.104294 79.1052077 162.15651 76.4147131 183.453056 54.8151377 174.719131 62.5485714 169.935317 52.2247546 148.234759"></polygon>
                <polygon id="Path-156" transform="translate(24.524017, 123.362146) rotate(270.000000) translate(-24.524017, -123.362146) " points="21.4438687 103.436381 31.3493274 125.323838 37.8078603 122.437855 35.1486709 143.28791 13.8004173 134.737095 21.4438687 130.053576 11.2401747 108.807981"></polygon>
                <polygon id="Path-156" transform="translate(23.895040, 65.664981) rotate(315.000000) translate(-23.895040, -65.664981) " points="20.7786304 45.3125178 30.8007009 67.6686823 37.3352666 64.7208976 34.6447721 86.0174445 13.0451967 77.2835189 20.7786304 72.4997051 10.4548136 50.7991476"></polygon>
            </g>
            <circle id="Oval-Copy" cx="117" cy="117" r="117"></circle>
        </g>
    </g>
</svg>