<?xml version="1.0" encoding="UTF-8"?>
<svg width="164px" height="164px" viewBox="0 0 164 164" version="1.1" xmlns="http://www.w3.org/2000/svg" xmlns:xlink="http://www.w3.org/1999/xlink">
    <title>packaging-cans</title>
    <g id="packaging-cans" stroke="none" stroke-width="1" fill="none" fill-rule="evenodd">
        <g id="Group-9" transform="translate(17.000000, 18.000000)" stroke="#FFFFFF" stroke-width="3">
            <ellipse id="Oval" cx="43.9705882" cy="68.1862745" rx="43.9705882" ry="13.3823529"></ellipse>
            <ellipse id="Oval" cx="26.127451" cy="68.8235294" rx="8.28431373" ry="3.82352941"></ellipse>
            <path d="M0,69.2712615 L0,117.098775 C8.41184551,124.849918 23.6670115,128.72549 45.7654978,128.72549 C65.2807271,128.33173 80.0614897,124.834383 86.7382806,117.098775 C87.0502531,116.685712 87.4512183,100.593964 87.9411765,68.8235294" id="Path-132"></path>
            <path d="M12.745098,122.352941 L12.745098,90.4901961 C36.2857229,94.9518637 57.527553,94.9518637 76.4705882,90.4901961 C76.4705882,90.4901961 76.4705882,101.111111 76.4705882,122.352941" id="Path-133" stroke-linecap="round"></path>
            <ellipse id="Oval" cx="95.5882353" cy="8.28431373" rx="34.4117647" ry="8.28431373"></ellipse>
            <line x1="60.5392157" y1="8.92156863" x2="60.5392157" y2="54.8039216" id="Path-134" stroke-linecap="round"></line>
            <path d="M130,8.92156863 L130,103.873435 C125.90071,108.90528 111.881103,111.666422 87.9411765,112.156863" id="Path-135"></path>
            <path d="M128.72549,82.8431373 C122.188807,87.6366524 108.594035,89.7258587 87.9411765,89.1107562" id="Path-136" stroke-linecap="round"></path>
            <path d="M61.1764706,29.3137255 C83.5711749,37.8104575 106.087515,37.8104575 128.72549,29.3137255" id="Path-137" stroke-linecap="round"></path>
            <path d="M88.4176719,72.9854914 C91.0601024,75.1628888 94.4459639,76.4705882 98.1372549,76.4705882 C106.583963,76.4705882 113.431373,69.6231785 113.431373,61.1764706 C113.431373,52.7297627 106.583963,45.8823529 98.1372549,45.8823529 C89.690547,45.8823529 82.8431373,52.7297627 82.8431373,61.1764706" id="Path"></path>
        </g>
    </g>
</svg>