<?xml version="1.0" encoding="UTF-8"?>
<svg width="164px" height="164px" viewBox="0 0 164 164" version="1.1" xmlns="http://www.w3.org/2000/svg" xmlns:xlink="http://www.w3.org/1999/xlink">
    <title>packaging-botles</title>
    <g id="packaging-botles" stroke="none" stroke-width="1" fill="none" fill-rule="evenodd">
        <g id="Group-6" transform="translate(17.000000, 17.000000)" stroke="#FFFFFF" stroke-width="3">
            <rect id="Rectangle" x="12.3809524" y="0" width="23.7301587" height="17.5396825" rx="1"></rect>
            <line x1="12.8203998" y1="7.73809524" x2="35.6716637" y2="7.73809524" id="Line-3" stroke-linecap="square"></line>
            <path d="M13.8543117,17.5396825 C11.3691544,32.7074459 7.45648666,44.2156989 2.11630839,52.0644416 C0.183586099,55.5242492 -0.425339715,77.1484254 0.289530947,116.93697 C-0.264406192,124.44431 2.91401972,128.62846 9.82480867,129.489418 C15.3205647,130.018597 40.1519617,130.892058 41.2698413,127.541557" id="Path-112" stroke-linecap="round"></path>
            <path d="M31.984127,17.5396825 C34.7307512,33.2956303 37.8259892,42.5813446 41.2698413,45.3968254" id="Path-113" stroke-linecap="round"></path>
            <line x1="0" y1="63.452381" x2="41.2698413" y2="63.452381" id="Path-114"></line>
            <rect id="Rectangle" x="10.7857143" y="77.8492063" width="23.8253968" height="23.8253968" rx="3"></rect>
            <line x1="1.03174603" y1="115.039683" x2="41.2698413" y2="115.039683" id="Path-115"></line>
            <rect id="Rectangle" x="53.6507937" y="0" width="21.6666667" height="12.3809524" rx="2"></rect>
            <path d="M57.8340392,12.3809524 C56.8011818,19.6452253 54.7534281,24.8229727 51.6907779,27.9141945 C47.0968027,32.5510272 43.6586721,38.8472964 44.4893413,58.1624306 C45.2965643,64.4544678 49.810205,71.0297272 48.4344684,79.2972612 C47.3997729,83.7410693 43.8578347,89.4551554 44.4893413,95.0617558 C44.4893413,97.4935623 44.4893413,107.288139 44.4893413,124.445486 C45.4250593,128.537658 47.6284653,129.680414 51.0995593,127.873754 C52.185746,126.984664 53.0056682,119.686264 59.5972331,123.335464 C63.0053028,126.013256 63.8771489,132.103633 67.9418285,126.982257 C72.0065082,121.860882 75.9166234,120.270161 78.7510676,126.31521 C79.9349606,127.910998 82.1202659,127.910998 85.3069834,126.31521 L85.3069834,96.5902557 C84.7601405,88.9910285 83.3949878,83.226697 81.2115251,79.2972612 C79.6062967,77.0174907 85.3069834,63.3126327 85.3069834,63.3126327 C85.3069834,63.3126327 86.4816455,43.1732556 84.3846154,38.8663019 C82.2875853,34.5593483 72.7642558,23.5126976 72.7642558,12.3809524" id="Path-116" stroke-linecap="round"></path>
            <path d="M79.4444444,29.9206349 C84.4644037,25.2855562 87.6076868,22.3798888 88.8742939,21.2036327 C90.140901,20.0273765 91.1246019,17.4303984 91.8253968,13.4126984" id="Path-117"></path>
            <rect id="Rectangle" x="87.6984127" y="0" width="26.8253968" height="13.4126984" rx="2"></rect>
            <path d="M111.322089,13.4126984 C112.59616,18.8511389 115.097386,22.6549018 118.825768,24.823987 C124.41834,28.0776149 129.611439,38.3288551 128.903277,50.8373907 C128.903277,54.0592575 124.347862,58.2655649 124.347862,60.0230778 C124.347862,60.96893 124.347862,64.3404917 124.347862,70.1377629 C124.347865,73.1300434 125.133269,76.0699128 126.62557,78.6635164 C128.117873,81.2571236 128.903277,84.1969971 128.903277,87.1892817 L128.903277,102.635296 L128.903277,102.635296 L128.903277,121.917354 C128.816466,126.718067 125.457296,129.412282 118.825768,130 C107.852026,130 96.8782834,130 85.9045412,130 C84.3150341,130 82.7698198,129.476221 81.5079365,128.509689 L81.5079365,128.509689 L81.5079365,128.509689" id="Path-118"></path>
            <line x1="87.6984127" y1="52.1031746" x2="128.968254" y2="52.1031746" id="Path-119"></line>
            <path d="M82.5396825,82.239055 C87.1838199,79.2279849 91.2547535,78.6501366 94.7524833,80.5055102 C99.9990779,83.2885705 103.541112,86.1839743 105.647036,86.1839743 C107.752961,86.1839743 112.324113,81.3905809 115.675534,81.3905809 C119.026956,81.3905809 126.289413,85.6307754 127.936508,88.7301587" id="Path-120"></path>
            <line x1="44.3650794" y1="44.8809524" x2="85.6349206" y2="44.8809524" id="Path-121"></line>
            <line x1="45.3968254" y1="62.4206349" x2="85.6349206" y2="62.4206349" id="Path-122"></line>
            <line x1="85.6349206" y1="95.4365079" x2="130" y2="95.4365079" id="Path-123"></line>
        </g>
    </g>
</svg>