<?xml version="1.0" encoding="UTF-8"?>
<svg width="164px" height="164px" viewBox="0 0 164 164" version="1.1" xmlns="http://www.w3.org/2000/svg" xmlns:xlink="http://www.w3.org/1999/xlink">
    <title>packaging-sachets</title>
    <g id="packaging-sachets" stroke="none" stroke-width="1" fill="none" fill-rule="evenodd">
        <g id="Group-12" transform="translate(20.000000, 26.000000)">
            <g id="Group-11" stroke="#FFFFFF" stroke-width="3">
                <path d="M3.79565394,72.0664452 C2.26443433,59.6848764 1.49882453,52.1414532 1.49882453,49.4361757 C1.49882453,46.6739581 1.49882453,28.4721318 2.64723923,22.9584767 C3.28857865,20.8393923 2.32533018,13.4103769 0,11.8708914 C0.0153910405,11.9842212 0.0153910405,8.02725738 0,0 L78.0155039,0 L78.0155039,6.11629611 C73.2987619,5.61432689 71.2547482,7.06279767 71.8834629,10.4617085 C72.7809202,13.0114769 75.6533655,12.9706057 78.0155039,12.9706057 C78.0155039,12.9978532 78.0155039,13.9032057 78.0155039,15.6866632 C74.103089,20.3157341 72.5610409,27.0979205 73.3893598,36.0332226" id="Path-138"></path>
                <path d="M73.0484971,41.4174972 C71.0656977,59.781725 70.7562095,73.7094651 72.1200326,83.2007174 C73.5945063,86.7032286 74.7297112,89.8947207 75.5256474,92.7751938 L0,92.7751938 L0,89.4320386 C2.18996791,85.3607104 3.28495187,81.1556364 3.28495187,76.8168167" id="Path-139"></path>
                <line x1="9.12947386" y1="16.1528239" x2="65.5662213" y2="16.1528239" id="Path-140"></line>
                <line x1="13.5558854" y1="7.04097453" x2="57.8200011" y2="7.04097453" id="Line-4" stroke-linecap="square"></line>
                <path d="M9.87372566,37.3741957 C7.86518742,28.6747367 11.1722054,24.3250073 19.7947795,24.3250073 C26.6208914,25.0481592 34.8636874,27.0169015 43.623959,27.0169015 C45.5272234,27.0169015 54.4680715,25.0246323 56.1880456,24.3250073 C57.9080197,23.6253822 63.7496783,23.4530734 63.7496783,31.7499125 C63.7496783,40.0467517 62.4008188,53.26522 63.7496783,58.1134369 C65.0985378,62.9616538 68.8484167,82.51626 58.8495599,83.2809829 C52.1836554,83.7907982 38.0642826,83.7907982 16.4914416,83.2809829 C12.045477,83.0598251 9.59148777,80.5418572 9.12947386,75.7270792 C9.43660667,69.6257474 10.3108447,43.9984702 9.87372566,42.367069" id="Path-141"></path>
                <path d="M19.3237361,60.469546 C19.3237361,58.124449 16.791873,45.3259352 28.3549132,52.8977406 C28.3549132,52.8977406 28.3549132,52.8977406 28.3549132,52.8977406 C35.5671417,57.6205115 45.0177978,57.0796748 51.6441612,51.564957 C54.5070111,49.1823565 56.9344962,52.1505578 58.926604,60.469546" id="Path-145" stroke-linecap="round"></path>
            </g>
            <g id="Group-10" transform="translate(49.550388, 33.736434)">
                <path d="M53.3430965,61.3474378 L30.5091786,84.3410853 L22.5823113,84.3410853 L22.5823113,78.2677849 L14.4860143,78.2677849 L14.4860143,71.0540643 L7.10705155,71.0540643 L7.10705155,64.4081799 L0,64.4081799 L0,58.7080103 M20.3339421,36.7249726 L57.0678712,0 L65.3966239,0 L65.3966239,6.17902135 L72.1388495,6.17902135 L72.1388495,13.639638 L79.3769757,13.639638 L79.3769757,21.5126806 L86.4496124,21.5126806 L86.4496124,28.5269784 L63.7244057,50.5242202" id="Shape" stroke="#FFFFFF" stroke-width="3"></path>
                <line x1="15.8066025" y1="59.1200755" x2="35.4031746" y2="79.379845" id="Path" stroke="#FFFFFF" stroke-width="3"></line>
                <line x1="52.6930971" y1="4.96124031" x2="80.6863049" y2="33.9018088" id="Path-144" stroke="#FFFFFF" stroke-width="3"></line>
                <ellipse id="Oval" stroke="#FFFFFF" stroke-width="3" cx="43.636471" cy="41.3436693" rx="10.7032853" ry="8.26873385"></ellipse>
                <ellipse id="Oval" fill="#FFFFFF" cx="58.4564046" cy="56.2273902" rx="1.64665928" ry="1.65374677"></ellipse>
            </g>
        </g>
    </g>
</svg>