<?xml version="1.0" encoding="UTF-8"?>
<svg width="164px" height="164px" viewBox="0 0 164 164" version="1.1" xmlns="http://www.w3.org/2000/svg" xmlns:xlink="http://www.w3.org/1999/xlink">
    <title>packaging-jar</title>
    <g id="packaging-jar" stroke="none" stroke-width="1" fill="none" fill-rule="evenodd">
        <g id="Group-8" transform="translate(19.000000, 17.000000)" stroke="#FFFFFF" stroke-width="3">
            <ellipse id="Oval" cx="63.6734694" cy="8.62244898" rx="31.8367347" ry="8.62244898"></ellipse>
            <path d="M31.8367347,9.28571429 L31.8367347,64.3800278 C39.2040586,70.099465 50.6790071,72.9591837 66.2615801,72.9591837 C81.844153,72.9591837 91.5936944,69.3767584 95.5102041,62.211908 L95.5102041,30.2199868" id="Path-124"></path>
            <path d="M95.5102041,9.28571429 L95.2258971,24.5675907 C71.8592878,33.8944272 50.729567,34.2460103 31.8367347,25.6223399" id="Path-125"></path>
            <path d="M100.137729,58.3673469 C117.392848,59.8536869 126.020408,62.7372512 126.020408,67.0180399 C126.020408,73.439223 101.305756,76.0277194 87.5510204,75.5586105" id="Path-126"></path>
            <path d="M126.020408,66.3265306 L126.020408,120.078216 C113.740863,131.568614 93.8429035,133.078757 66.3265306,124.608645" id="Path-127"></path>
            <path d="M126.020408,82.244898 C112.291703,89.8532705 93.2780977,90.9159216 68.9795918,85.4328511" id="Path-128"></path>
            <path d="M27.8350532,58.3673469 C9.27835108,59.7700188 0,62.5528868 0,66.7159509 C0,72.9605472 20.5762175,77.1685627 41.122449,75.0645549" id="Path-129"></path>
            <path d="M0,66.3265306 L0,82.1803446 C9.59686061,86.6451489 21.7857466,88.877551 36.5666581,88.877551 C47.7887661,88.3975132 56.8243699,85.8059442 63.6734694,81.102844 L63.6734694,77.6020408" id="Path-130"></path>
            <path d="M63.6734694,87.5510204 L63.5320051,118.963553 C59.7643371,126.321184 48.8327323,130 30.7371908,130 C12.6416492,130 2.39591897,126.321184 0,118.963553 L0,87.5510204" id="Path-131"></path>
        </g>
    </g>
</svg>