<?xml version="1.0" encoding="UTF-8"?>
<svg width="136px" height="136px" viewBox="0 0 136 136" version="1.1" xmlns="http://www.w3.org/2000/svg" xmlns:xlink="http://www.w3.org/1999/xlink">
    <title>Artboard</title>
    <g id="Artboard" stroke="none" stroke-width="1" fill="none" fill-rule="evenodd">
        <g id="Group" transform="translate(4.000000, 15.000000)" stroke="#FFFFFF" stroke-width="3">
            <path d="M18.4034275,6.09817449 L72.5117475,6.09817449 C73.9006653,6.09817449 75.0266058,7.2241149 75.0266058,8.61303278 L75.0266058,12.8044633 C75.0266058,14.1933812 73.9006653,15.3193216 72.5117475,15.3193216 L2.51485829,15.3193216 C1.12594041,15.3193216 0,14.1933812 0,12.8044633 L0,8.61303278 C0,7.2241149 1.12594041,6.09817449 2.51485829,6.09817449 L10.7840164,6.09817449 L10.7840164,6.09817449" id="Path" stroke-linecap="round"></path>
            <line x1="2.18562481" y1="15.3193216" x2="2.18562481" y2="88.5805072" id="Path-43"></line>
            <rect id="Rectangle" x="0" y="88.6693551" width="76.2840349" height="9.64029013" rx="4.82014506"></rect>
            <line x1="72.9943734" y1="15.3193216" x2="72.9943734" y2="88.5805072" id="Path-44"></line>
            <line x1="2.18562481" y1="32.6463483" x2="72.9943734" y2="32.6463483" id="Path-45"></line>
            <line x1="2.18562481" y1="72.6681906" x2="72.9943734" y2="72.6681906" id="Path-46"></line>
            <polyline id="Path-47" stroke-linecap="round" points="70.5511844 4.49113542 75.0266058 0 80.3621351 4.49113542 84.6301595 0 88.8940011 4.49113542 93.3059268 0 98.2699733 4.49113542 103.181051 0 107.559848 4.49113542 111.560369 0 116.65353 4.49113542 120.969534 0 125 4.49113542 125 93.4895002 120.969534 98.3096453 116.65353 93.4895002 111.560369 98.3096453 107.559848 93.4895002 103.181051 98.3096453 97.7755922 93.4895002 93.3059268 98.3096453 88.8940011 93.4895002 84.6301595 98.3096453 80.3621351 93.4895002"></polyline>
            <line x1="79.7192862" y1="86.5586486" x2="125" y2="86.5586486" id="Path-48"></line>
            <line x1="82.3616091" y1="69.6179298" x2="92.1039605" y2="69.6179298" id="Path-49" stroke-linecap="round"></line>
            <line x1="82.3616091" y1="62.5363335" x2="103.744262" y2="62.5363335" id="Path-50"></line>
            <line x1="82.3616091" y1="47.4471837" x2="103.744262" y2="47.4471837" id="Path-50-Copy"></line>
            <line x1="82.3616091" y1="41.160038" x2="103.744262" y2="41.160038" id="Path-50-Copy-2"></line>
            <line x1="82.3616091" y1="33.4058916" x2="103.744262" y2="33.4058916" id="Path-50-Copy-3"></line>
            <line x1="82.3616091" y1="27.5378889" x2="103.744262" y2="27.5378889" id="Path-50-Copy-4"></line>
            <circle id="Oval" cx="112.435123" cy="30.3036856" r="3.8770732"></circle>
            <circle id="Oval-Copy" cx="112.435123" cy="44.3449777" r="3.8770732"></circle>
            <line x1="78.7988932" y1="10.7721669" x2="113.17498" y2="10.7721669" id="Path-50-Copy-5"></line>
            <line x1="117.323599" y1="10.7721669" x2="125" y2="10.7721669" id="Path-51" stroke-linecap="round"></line>
        </g>
    </g>
</svg>