<?xml version="1.0" encoding="UTF-8"?>
<svg width="136px" height="136px" viewBox="0 0 136 136" version="1.1" xmlns="http://www.w3.org/2000/svg" xmlns:xlink="http://www.w3.org/1999/xlink">
    <title>Artboard</title>
    <g id="Artboard" stroke="none" stroke-width="1" fill="none" fill-rule="evenodd" stroke-linecap="round">
        <g id="Group" transform="translate(12.000000, 12.000000)" stroke="#71BE1C" stroke-width="4">
            <path d="M0,113 L111,113 C108.790131,106.67487 105.90433,102.150612 102.342598,99.4272266 C97,95.3421478 85,86.9311456 81.5562799,83.1337659 C73.6321259,76.5 56.9930709,64.1690093 45.9965354,70.9935513 C35,77.8180932 30.997139,82 25.9207902,86.9311456 C22.8563156,90 14.979177,96.3652788 9.28706961,98.7743671 C4.05628504,101.868021 0.96059517,106.609898 0,113 Z" id="Path-8"></path>
            <line x1="53" y1="77" x2="59" y2="77" id="Path-9"></line>
            <line x1="53" y1="91" x2="59" y2="91" id="Path-9-Copy"></line>
            <line x1="53" y1="105" x2="59" y2="105" id="Path-9-Copy-2"></line>
            <line x1="70" y1="105" x2="76" y2="105" id="Path-9-Copy-3"></line>
            <line x1="64" y1="98" x2="70" y2="98" id="Path-9-Copy-4"></line>
            <line x1="79" y1="98" x2="85" y2="98" id="Path-9-Copy-5"></line>
            <line x1="89" y1="105" x2="95" y2="105" id="Path-9-Copy-6"></line>
            <line x1="72" y1="90" x2="78" y2="90" id="Path-9-Copy-7"></line>
            <line x1="64" y1="82" x2="70" y2="82" id="Path-9-Copy-8"></line>
            <line x1="41" y1="82" x2="47" y2="82" id="Path-9-Copy-9"></line>
            <line x1="41" y1="98" x2="47" y2="98" id="Path-9-Copy-10"></line>
            <line x1="26" y1="98" x2="32" y2="98" id="Path-9-Copy-11"></line>
            <line x1="35" y1="105" x2="41" y2="105" id="Path-9-Copy-12"></line>
            <line x1="16" y1="105" x2="22" y2="105" id="Path-9-Copy-13"></line>
            <line x1="33" y1="91" x2="39" y2="91" id="Path-9-Copy-14"></line>
            <path d="M41.6566622,51.1428587 C52.2859634,46.2445498 60.1804143,43.5999546 65.3400151,43.2090729 C73.4569238,42.5941513 99.5018985,43.8239946 103.820078,34.7084802 C106.698864,28.6314705 104.309882,22.5525249 96.6531343,16.4716432 C92.4893013,10.1572144 87.2768818,7 81.0158759,7 C71.624367,7 58.4860235,7.44451133 47.4477441,28.2447627 C43.36964,36.8536224 40.9697592,44.1452655 40.2481018,50.1196921 L40.2476481,50.1196391 C40.1835286,50.6681891 40.5762372,51.1648559 41.1247872,51.2289753 C41.3067331,51.2502428 41.4910251,51.2211243 41.6575509,51.1447977 Z" id="Path-10"></path>
            <path d="M97,14.8134613 C102.198388,7.47841894 106.49919,4.06302639 109.902405,4.56728363 C115.007227,5.3236695 111.786282,10.0448678 109.902405,10.8572413 C106.6205,13.0957838 102.319699,14.4145238 97,14.8134613 Z" id="Path-11"></path>
            <path d="M97,16 C72.8334519,19.718789 54.1667852,31.3854557 41,51" id="Path-12"></path>
            <path d="M49,27 C60.4012949,27.6758458 64.8310912,32.9571721 62.2893891,42.8439789" id="Path-13"></path>
            <path d="M60,13 C71.0433439,16.2201005 77.3569861,21.1443227 78.9409266,27.7726665 C79.2770924,32.1783331 78.2967835,36.9207776 76,42" id="Path-14"></path>
            <path d="M78,7 C87.3333333,13.0100841 92,19.8334161 92,27.469996 C92,35.1065758 91.3333333,39.6627604 90,41.1385498" id="Path-15"></path>
            <line x1="95" y1="71" x2="95" y2="82" id="Path-16"></line>
            <line x1="95.5" y1="71" x2="95.5" y2="82" id="Path-16-Copy" transform="translate(95.500000, 76.500000) rotate(-90.000000) translate(-95.500000, -76.500000) "></line>
            <line x1="17" y1="63" x2="17" y2="74" id="Path-16-Copy-3"></line>
            <line x1="16.5" y1="63" x2="16.5" y2="74" id="Path-16-Copy-2" transform="translate(16.500000, 68.500000) rotate(-90.000000) translate(-16.500000, -68.500000) "></line>
            <line x1="36" y1="0" x2="36" y2="11" id="Path-16-Copy-5"></line>
            <line x1="36.5" y1="0" x2="36.5" y2="11" id="Path-16-Copy-4" transform="translate(36.500000, 5.500000) rotate(-90.000000) translate(-36.500000, -5.500000) "></line>
        </g>
    </g>
</svg>