<?xml version="1.0" encoding="UTF-8"?>
<svg width="136px" height="136px" viewBox="0 0 136 136" version="1.1" xmlns="http://www.w3.org/2000/svg" xmlns:xlink="http://www.w3.org/1999/xlink">
    <title>Artboard</title>
    <g id="Artboard" stroke="none" stroke-width="1" fill="none" fill-rule="evenodd">
        <g id="Group" transform="translate(27.000000, 7.000000)" stroke="#FFFFFF" stroke-width="4">
            <circle id="Oval" cx="40.9851452" cy="8.87808783" r="8.87808783"></circle>
            <circle id="Oval-Copy" cx="73.5786731" cy="27.6072046" r="8.87808783"></circle>
            <circle id="Oval-Copy-2" cx="73.5786731" cy="65.0654382" r="8.87808783"></circle>
            <circle id="Oval-Copy-3" cx="8.87808783" cy="65.0654382" r="8.87808783"></circle>
            <circle id="Oval-Copy-4" cx="8.87808783" cy="27.6072046" r="8.87808783"></circle>
            <line x1="33.1708703" y1="13.7001895" x2="16.6712519" y2="22.9854856" id="Path"></line>
            <line x1="48.8738575" y1="13.7001895" x2="65.5330545" y2="22.9854856" id="Path-2"></line>
            <line x1="73.5786731" y1="37.1323103" x2="73.5786731" y2="56.1873504" id="Path-3"></line>
            <line x1="8.87808783" y1="37.1323103" x2="8.87808783" y2="56.1873504" id="Path-4"></line>
            <path d="M38.3073822,46.7011744 L29.5530869,46.7011744 C26.9335517,46.7011744 24.8099989,44.5776215 24.8099989,41.9580863 C24.8099989,39.3385512 26.9335517,37.2149983 29.5530869,37.2149983 L52.4172035,37.2149983 C55.0367387,37.2149983 57.1602915,39.3385512 57.1602915,41.9580863 C57.1602915,44.5776215 55.0367387,46.7011744 52.4172035,46.7011744 L44.9206532,46.7011744 L44.9206532,46.7011744" id="Path" stroke-linecap="round"></path>
            <path d="M29.5530869,46.7011744 L29.3213786,54.9449841 C29.0574557,64.3349381 26.4769372,73.5141192 21.8093481,81.6660823 L20.8710318,83.3048555 L20.8710318,83.3048555" id="Path-5" stroke-linecap="round"></path>
            <path d="M52.4172035,46.7011744 L52.4172035,63.8333966 C52.4172035,67.661496 53.5055879,71.4106997 55.5554185,74.6437385 L73.1687114,102.423819 C74.321972,104.242767 74.3800155,106.548948 73.3197182,108.423608 L68.0225468,117.789283 C66.9003731,119.773344 64.797318,121 62.5178941,121 L20.5629821,121 C18.1514673,121 15.9197482,119.724743 14.6954249,117.64714 L9.7290965,109.219577 C8.33948788,106.861494 8.38634948,103.924068 9.85047011,101.611511 L17.7561757,89.1245684 L17.7561757,89.1245684" id="Path-6" stroke-linecap="round"></path>
            <line x1="65.5330545" y1="69.4107822" x2="55.8760912" y2="74.6597667" id="Path-7"></line>
            <line x1="16.6712519" y1="69.4107822" x2="26.0383712" y2="73.9435261" id="Path-8" stroke-linecap="round"></line>
            <path d="M37.542588,114.676358 L22.6494852,114.676358 C21.5451897,114.676358 20.5208932,114.100257 19.9473532,113.156583 L16.5170233,107.512491 C15.8901619,106.481085 15.9051209,105.182787 16.5555806,104.166098 L28.6203159,85.3085377 C29.2014805,84.4001591 30.2055104,83.8505872 31.2838906,83.8505872 L51.0965006,83.8505872 C52.1881194,83.8505872 53.2025376,84.4136355 53.7799643,85.3400317 L65.5697898,104.255075 C66.1749842,105.22602 66.2084838,106.448149 65.6573871,107.45079 L62.5867327,113.0374 C62.0311225,114.048252 60.9691552,114.676358 59.8156717,114.676358 L44.7086166,114.676358" id="Path-9" stroke-linecap="round"></path>
            <line x1="31.3062693" y1="91.6068406" x2="50.4941765" y2="91.6068406" id="Path-10" stroke-linecap="round"></line>
            <line x1="26.7955791" y1="99.2634724" x2="55.1035697" y2="99.2634724" id="Path-11" stroke-linecap="round"></line>
            <line x1="22.6897144" y1="106.380385" x2="59.4744784" y2="106.380385" id="Path-12" stroke-linecap="round"></line>
        </g>
    </g>
</svg>