<?xml version="1.0" encoding="UTF-8"?>
<svg width="32px" height="32px" viewBox="0 0 32 32" version="1.1" xmlns="http://www.w3.org/2000/svg" xmlns:xlink="http://www.w3.org/1999/xlink">
    <title>Group</title>
    <g id="Page-2" stroke="none" stroke-width="1" fill="none" fill-rule="evenodd">
        <g id="Nature’s-Foods-Australia" transform="translate(-833.000000, -1378.000000)" fill="#000000" fill-rule="nonzero">
            <g id="Group" transform="translate(833.000000, 1378.000000)">
                <path d="M17.4778571,23.665 L11.0246429,17.2121429 C10.3560714,16.5435714 10.3560714,15.4564286 11.0246429,14.7878571 L17.4778571,8.33464286 C17.9242857,7.88821429 18.6475,7.88821429 19.0939286,8.33464286 C19.5403571,8.78107143 19.5403571,9.50428571 19.0939286,9.95071429 L13.0446429,16 L19.0939286,22.0492857 C19.5403571,22.4957143 19.5403571,23.2189286 19.0939286,23.6653571 C18.8707143,23.8885714 18.5782143,24.0003571 18.2860714,24.0003571 C17.9939286,24.0003571 17.7007143,23.8885714 17.4778571,23.665 Z M12.6514643,16.4360714 L12.6824643,16.4360714 L12.6514643,16.4360714 Z" id="Shape"></path>
                <path d="M16,2.28571429 C23.5621429,2.28571429 29.7142857,8.43785714 29.7142857,16 C29.7142857,23.5621429 23.5621429,29.7142857 16,29.7142857 C8.43785714,29.7142857 2.28571429,23.5621429 2.28571429,16 C2.28571429,8.43785714 8.43785714,2.28571429 16,2.28571429 M16,0 C7.16357143,0 0,7.16357143 0,16 C0,24.8364286 7.16357143,32 16,32 C24.8364286,32 32,24.8364286 32,16 C32,7.16357143 24.8364286,0 16,0 Z" id="Shape"></path>
            </g>
        </g>
    </g>
</svg>