<?xml version="1.0" encoding="UTF-8"?>
<svg width="100px" height="56px" viewBox="0 0 100 56" version="1.1" xmlns="http://www.w3.org/2000/svg" xmlns:xlink="http://www.w3.org/1999/xlink">
    <title> freeze dry-duck</title>
    <g id="-freeze-dry-duck" stroke="none" stroke-width="1" fill="none" fill-rule="evenodd">
        <g id="Group-4" transform="translate(49.990676, 27.870068) scale(-1, 1) translate(-49.990676, -27.870068) translate(24.000000, 2.000000)">
            <path d="M1.02606676,7.63125111 C3.41355588,6.43176856 5.03818382,5.52722587 5.89995058,4.91762305 C9.29431761,2.5164911 10.5725393,0.683448992 11.1023661,0.402724342 C12.2412968,-0.200729267 18.913546,-1.01345313 20.5640926,5.31821325 C22.2146392,11.6498796 17.0469474,18.581773 27.1224742,19.9111984 C32.0469383,21.5679062 45.1786477,26.5281874 51.7925445,24.0480468 C51.925577,23.9806358 54.2926891,41.2888633 37.6922514,42.6823154 C21.0918137,44.0757676 8.91247144,36.1990914 8.91247144,26.7165033 C8.91247144,20.3947779 10.0953661,14.7730322 12.4611555,9.85126624 L1.80307867,10.3014331 C1.12698884,10.3299892 0.518194903,9.89482557 0.326373695,9.24588988 C0.138193803,8.60927285 0.432868027,7.92925813 1.02606676,7.63125111 Z" id="Path-62" stroke="#000000" stroke-width="2"></path>
            <rect id="Rectangle" fill="#000000" x="11.5831624" y="4.79101132" width="1.82291955" height="1.82291955" rx="0.911459774"></rect>
            <path d="M18.7051983,21.4214125 C18.4534367,32.0356782 23.9365219,37.0605806 35.1544538,36.4961197 C39.8147258,35.917612 43.1098573,33.6605613 45.0398481,29.7249677" id="Path-63" stroke="#000000" stroke-width="2" stroke-linecap="round"></path>
            <line x1="28.8243451" y1="26.7468964" x2="43.1804346" y2="32.1207299" id="Path-64" stroke="#000000" stroke-width="2" stroke-linecap="round"></line>
            <line x1="27.7749666" y1="31.4082347" x2="37.8211394" y2="35.826173" id="Path-65" stroke="#000000" stroke-width="2" stroke-linecap="round"></line>
            <polyline id="Path-66" stroke="#000000" stroke-width="2" points="32.798053 42.8428251 32.798053 51.740137 18.1819322 51.740137 18.1819322 46.3482095 25.9906759 47.291481 25.9906759 42.2500016"></polyline>
            <line x1="29.4178408" y1="42.8428251" x2="29.4178408" y2="51.740137" id="Path-67" stroke="#000000" stroke-width="2"></line>
            <line x1="7.68167994" y1="3.25408657" x2="7.68167994" y2="9.85854232" id="Path-68" stroke="#000000" stroke-width="2"></line>
        </g>
    </g>
</svg>