<?xml version="1.0" encoding="UTF-8"?>
<svg width="100px" height="56px" viewBox="0 0 100 56" version="1.1" xmlns="http://www.w3.org/2000/svg" xmlns:xlink="http://www.w3.org/1999/xlink">
    <title> freeze dry-beef</title>
    <g id="-freeze-dry-beef" stroke="none" stroke-width="1" fill="none" fill-rule="evenodd">
        <g id="牛" transform="translate(17.000000, 4.000000)">
            <path d="M59.6046105,19 L65.5803105,16.950914 C66.5267702,16.5165507 67,15.2857455 67,13.2584983 C66.9817474,13.0374904 63.3951048,10.6179909 56.2400721,6 L47,6 C49.038331,9.04713691 50.8646142,10.5707054 52.4788495,10.5707054" id="Path-19" stroke="#000000" stroke-width="2" stroke-linecap="round"></path>
            <circle id="Oval" fill="#000000" cx="56" cy="11" r="1"></circle>
            <path d="M48.201889,8.02186203 C45.4003914,10.1499007 42.6193658,11.2139201 39.8588123,11.2139201 C37.0982588,11.2139201 28.6766601,11.2139201 14.5940161,11.2139201 C9.53133871,10.9062322 7,14.0370182 7,20.6062781 C7,26.167725 9.53351994,35.985496 10.492723,36.9340795 C10.592574,37.0228501 10.592574,40.7114903 10.492723,48 L21.1042324,48 L19.442381,45.209156 C19.1659331,44.744901 19.020002,44.2146013 19.020002,43.6742716 L19.020002,35.8541325 L19.020002,35.8541325 L20.0102167,32.1369634" id="Path-20" stroke="#000000" stroke-width="2" stroke-linecap="round"></path>
            <path d="M17.0102658,27 L14.3344073,31.0255202 C14.1163342,31.353586 14,31.7387464 14,32.1326791 L14,43.2024195 C14,43.8866518 14.2338977,44.550326 14.6628991,45.0833659 L17.0102658,48 L17.0102658,48" id="Path-21" stroke="#000000" stroke-width="2" stroke-linecap="round"></path>
            <path d="M16,29 C19.7777241,34.104599 29.1110574,35.9520816 44,34.5424479" id="Path-22" stroke="#000000" stroke-width="2" stroke-linecap="round"></path>
            <path d="M60,19 C58.1003717,27.159541 55.1003717,31.8262077 51,33" id="Path-23" stroke="#000000" stroke-width="2" stroke-linecap="round"></path>
            <path d="M52,27 L50.3332242,29.5947765 C50.1260857,29.9172422 50.015963,30.2924345 50.015963,30.6756975 L50.015963,44.7807708 L50.015963,44.7807708 L51.0603351,46.4753325 C51.3501009,46.9454965 51.2038594,47.5615413 50.7336954,47.8513072 C50.575959,47.9485214 50.3943151,48 50.2090278,48 L41.8206053,48 C41.2683206,48 40.8206053,47.5522847 40.8206053,47 L40.8206053,37.5 L40.8206053,37.5 L40,34.8453407" id="Path-24" stroke="#000000" stroke-width="2" stroke-linecap="round"></path>
            <path d="M42,28 L45.3215987,35.5432366 C45.7689678,36.5591963 46,37.657143 46,38.767239 L46,48 L46,48" id="Path-25" stroke="#000000" stroke-width="2" stroke-linecap="round"></path>
            <path d="M53,5 C50.3333333,3.52399224 49.4444444,1.85732557 50.3333333,0" id="Path-26" stroke="#000000" stroke-width="2" stroke-linecap="round"></path>
            <line x1="55" y1="5" x2="55" y2="1" id="Path-27" stroke="#000000" stroke-width="2" stroke-linecap="round"></line>
            <path d="M8,13.005196 C4.99365879,12.900084 3.25434668,14.3897368 2.78206368,17.4741546 C2.3221758,20.4776215 2.31010599,25.27508 2.74585425,31.8665301 C2.76906355,32.2187826 2.69857789,32.5708932 2.54162165,32.8870976 L0,38 L0,38" id="Path-28" stroke="#000000" stroke-width="2" stroke-linecap="round"></path>
            <path d="M48.9161064,16.1576471 C49.4038417,20.2537743 47.7649039,22.3018379 43.9992933,22.3018379 C43.9328101,22.3018379 41.5070687,17.6133781 37.9104727,18.4215603 C34.3138768,19.2297425 32.1685455,25.0819616 29.8519622,26.2615495 C27.535379,27.4411374 23.4588081,27.6567497 22,23.4534581 C22,21.651728 22.7806051,19.5268549 24.3418153,17.0788386 L24.3437217,17.0800521 C24.7377704,16.4609482 24.7611034,15.6757587 24.4045127,15.0343485 C23.2982506,13.0480745 21.9220131,12.0365321 20.2752991,12" id="Path-29" stroke="#000000" stroke-width="2" stroke-linecap="round"></path>
            <line x1="45" y1="11" x2="47" y2="14" id="Path-30" stroke="#000000" stroke-width="2" stroke-linecap="round"></line>
            <path d="M11.5269147,17 C13.8423049,17.5699029 15,18.8313447 15,20.7843255 C14.8820778,21.7001209 11.0538294,21.4667569 11.5269147,25.170866 C11.8423049,27.6402721 11,29.2499835 9,30" id="Path-31" stroke="#000000" stroke-width="2" stroke-linecap="round"></path>
            <path d="M42,31.192091 C39.1914218,31.8904749 36.3828436,31.5269585 33.5742654,30.1015418 C32.4516706,29.4793338 29.1919811,30.7176553 30,33.9267044" id="Path-32" stroke="#000000" stroke-width="2" stroke-linecap="round"></path>
        </g>
    </g>
</svg>