<?xml version="1.0" encoding="UTF-8"?>
<svg width="100px" height="56px" viewBox="0 0 100 56" version="1.1" xmlns="http://www.w3.org/2000/svg" xmlns:xlink="http://www.w3.org/1999/xlink">
    <title> freeze dry-chicken</title>
    <g id="-freeze-dry-chicken" stroke="none" stroke-width="1" fill="none" fill-rule="evenodd">
        <g id="Group-3" transform="translate(50.495706, 28.000000) scale(-1, 1) translate(-50.495706, -28.000000) translate(28.000000, 2.000000)">
            <path d="M3.30958137,7.84362424 C5.57262036,3.47504362 8.86781857,3.21150679 13.195176,7.05301377 C16.5001365,11.1463905 23.3614956,24.1399445 37.6851753,17.0940944 C39.2528499,15.4663526 41.8994027,11.796128 43.3372821,15.0290902 C43.3372821,15.3205985 42.7787679,16.0089332 41.6617395,17.0940944 C44.8025235,17.0013066 45.0314148,18.6755667 42.3484133,22.1168746 C42.3484133,22.1168746 46.9623268,21.5297566 43.9978537,25.1567669 C41.0333806,28.7837772 41.5403077,31.0098718 37.6851753,35.8526749 C33.830043,40.695478 28.5900236,44.5120267 28.5900236,44.5120267 C28.5900236,44.5120267 25.7954025,45.6296163 24.150497,42.9227373 C24.150497,42.9227373 4.47296807,35.3926316 3.30958137,27.2788364 C2.79579504,23.042621 3.4516886,19.2721143 5.27726204,15.9673164 C5.84501793,13.8218518 5.49161269,12.2202377 4.21704631,11.162474 C4.21704631,11.162474 4.54647007,10.4181084 4.21704631,9.21331479 C4.13904668,8.92804862 3.83655837,8.4714851 3.30958137,7.84362424 Z" id="Path-55" stroke="#000000" stroke-width="2"></path>
            <circle id="Oval" fill="#000000" cx="8.07724365" cy="8.55469367" r="1.3731038"></circle>
            <path d="M17.3748975,18.9616973 C13.4111355,19.2376123 11.2120684,21.3231683 10.7776961,25.2183655 C10.1261377,31.0611613 21.2222837,35.3189647 23.526109,35.7736286 C25.8299344,36.2282925 29.0960615,34.752354 31.118019,30.5461798" id="Path-56" stroke="#000000" stroke-width="2" stroke-linecap="round"></path>
            <path d="M28.6150744,22.7850422 C34.1215799,24.0605888 36.8748326,24.8946751 36.8748326,25.2873011 C36.8748326,25.87624 36.1390279,32.4519332 26.1440834,30.0012693" id="Path-57" stroke="#000000" stroke-width="2" stroke-linecap="round"></path>
            <path d="M10.7501385,5.1278807 C12.4253028,4.22817812 12.7282432,2.92856343 11.6589597,1.22903662 C11.1002754,0.529645017 9.37540822,-0.198172606 8.45704829,1.66267241 C8.40107243,1.61421066 7.32884555,0 6.12314363,0 C5.31934235,0 4.80666202,0.854646783 4.58510265,2.56394035 C3.36697689,1.78084526 2.38591744,1.78084526 1.64192431,2.56394035 C0.525934626,3.73858298 0.591827512,6.87724255 2.09022262,7.66066462 C2.14486899,7.70081608 0,10.130669 0,11.6895171 C0.0660657891,12.1469898 0.977810773,12.3106628 2.73523495,12.180536 C0.533020956,14.5840838 1.14964352,16.2522521 4.58510265,17.1850409" id="Path-58" stroke="#000000" stroke-width="2" stroke-linecap="round"></path>
            <path d="M15.4247821,39.1053771 C15.4247821,39.1053771 17.2476851,48.5549284 22.8772591,42.7027919" id="Path-59" stroke="#000000" stroke-width="2" stroke-linecap="round"></path>
            <path d="M19.8056761,44.7406346 L19.8056761,46.3620605 C19.8056761,49.2489162 17.4654172,51.5891751 14.5785615,51.5891751 L14.5785615,51.5891751 L14.5785615,51.5891751" id="Path-60" stroke="#000000" stroke-width="2" stroke-linecap="round"></path>
            <path d="M26.7960227,44.7406346 L26.7960227,46.3620605 C26.7960227,49.2489162 24.4557638,51.5891751 21.5689081,51.5891751 L21.5689081,51.5891751 L21.5689081,51.5891751" id="Path-60-Copy" stroke="#000000" stroke-width="2" stroke-linecap="round"></path>
            <line x1="26.7960227" y1="49.3300383" x2="29.3665467" y2="52" id="Path-61" stroke="#000000" stroke-width="2" stroke-linecap="round"></line>
        </g>
    </g>
</svg>