<?xml version="1.0" encoding="UTF-8"?>
<svg width="100px" height="56px" viewBox="0 0 100 56" version="1.1" xmlns="http://www.w3.org/2000/svg" xmlns:xlink="http://www.w3.org/1999/xlink">
    <title> freeze dry-vacuumed pack bag</title>
    <g id="-freeze-dry-vacuumed-pack-bag" stroke="none" stroke-width="1" fill="none" fill-rule="evenodd" stroke-linecap="round">
        <g id="Group-11" transform="translate(16.000000, 2.000000)" stroke="#000000" stroke-width="2">
            <path d="M30.7349935,7.81806678 L20.212719,0 C19.8116548,4.12707927 19.1508588,6.73310153 18.2303308,7.81806678 C16.8495389,9.44551465 13.8427121,14.1510987 13.8427121,15.0301728 C13.8427121,15.9092469 12.6469727,19.9174582 9.6036959,21.2412656 C8.35155127,22.2663218 8.63296157,25.3462344 8.49225642,25.5967683 C8.35155127,25.8473023 1.33417756,32.3963216 0,33.6793729 C0.0234037551,33.704821 4.63764114,34.7828183 13.8427121,36.9133648 C18.5915978,39.9406344 21.3136423,41.6326532 22.0088455,41.9894212 C22.7040487,42.3461892 25.9868123,43.7408148 31.8571362,46.173298 L40.6614008,47.1529208 L42.7701208,49.6357147 L51.3233428,52.1369032 C54.7106527,47.9216872 56.7584961,45.3005676 57.4668729,44.2735443 C58.1752496,43.246521 57.9945226,41.91147 56.9246917,40.2683913 L61.1468274,36.3118089 C60.7071275,32.6747469 60.9046382,30.5019296 61.7393596,29.793357 C62.9914416,28.7304982 64.2585834,27.776602 65.0382676,25.0123736 C65.0933384,23.3117066 64.2116117,16.8335889 67.9903303,14.8575264 C68.2968899,14.5995908 61.2433487,12.8946188 56.9246917,12.8946188 C56.165756,12.8946188 49.6985212,10.383534 47.2423039,6.82839176 C46.9392205,6.69357657 40.2756432,6.08484712 27.251572,5.00220341" id="Path-77"></path>
            <path d="M48.8791348,20.8674421 C49.7879541,23.4759931 49.9022544,25.4415062 49.2220355,26.7639812" id="Path-78"></path>
            <path d="M43.9511882,33.3113532 C43.9511882,33.3113532 42.499438,34.594988 40.9284378,33.9531706" id="Path-79"></path>
            <path d="M36.038968,33.7221164 C34.2942888,31.4963877 31.8791074,30.5874199 28.7934239,30.9952132" id="Path-80"></path>
            <path d="M24.5775422,28.7395703 C23.8694272,26.976456 22.9613656,25.9618676 21.8533572,25.695805 C20.7453489,25.4297424 20.5124028,24.0948993 21.154519,21.6912758" id="Path-81"></path>
            <path d="M39.9197736,14.9803829 C39.9197736,14.9803829 35.4316184,13.0371903 29.4524085,14.5952626 C27.2669365,15.4333768 27.3171704,15.9756791 25.9473563,15.478031" id="Path-82"></path>
            <path d="M55.9511897,17.9901408 L50.3610891,13.990239 L41.7747157,13.0438763 L38.1632565,9.58331284 L28.7934239,9.93308121 L24.0663445,12.6922103 L19.8451374,15.6684193 L17.6371324,19.5770689 L17.0114891,26.1073625 L12.3385599,29.6785642 L14.1628053,30.0331251 C17.1552856,33.2872456 22.6162403,35.1182389 30.5456693,35.5261048 C30.6272016,35.7207301 34.5008447,40.2793631 40.9284378,40.2793631 C41.0303726,40.3241088 42.5044283,40.8338504 45.3506049,41.8085878 C48.7564367,38.9912548 51.2816251,37.5825883 52.9261703,37.5825883 C54.5707154,37.5825883 55.8294606,36.2957644 56.7024058,33.7221164 C55.1122694,30.1733811 54.5895326,27.6351298 55.1341954,26.1073625 C55.6788583,24.5795953 56.4564174,23.2208868 57.4668729,22.0312372 L55.9511897,17.9901408 Z" id="Path-83"></path>
            <line x1="57.4668729" y1="22.0312372" x2="62.1826313" y2="22.0312372" id="Path-84"></line>
            <line x1="50.3610891" y1="13.990239" x2="55.8922591" y2="12.9232696" id="Path-86"></line>
            <line x1="53.1266741" y1="37.6374815" x2="56.3243793" y2="39.6630059" id="Path-87"></line>
            <polyline id="Path-88" points="45.3506049 41.8085878 45.7560457 43.9797269 49.658807 46.7385007"></polyline>
            <line x1="30.5456693" y1="35.5261048" x2="26.9076599" y2="38.6502437" id="Path-89"></line>
            <polyline id="Path-90" points="12.3385599 29.6785642 9.91040487 31.3993297 6.08493662 32.3113056"></polyline>
            <line x1="17.6371324" y1="19.5770689" x2="13.3206536" y2="17.8393643" id="Path-92"></line>
        </g>
    </g>
</svg>