<?xml version="1.0" encoding="UTF-8"?>
<svg width="100px" height="56px" viewBox="0 0 100 56" version="1.1" xmlns="http://www.w3.org/2000/svg" xmlns:xlink="http://www.w3.org/1999/xlink">
    <title> freeze dry-stand-up pouch bag </title>
    <g id="-freeze-dry-stand-up-pouch-bag-" stroke="none" stroke-width="1" fill="none" fill-rule="evenodd">
        <g id="Group-10" transform="translate(28.000000, 3.000000)" stroke="#000000" stroke-width="2">
            <path d="M4.98266613,0 L39.2607833,0 C41.4312844,1.37764225e-15 43.2057353,1.73098515 43.2595535,3.90081899 L44.3012744,45.900819 C44.3560505,48.1092788 42.610145,49.943994 40.4016852,49.9987702 C40.3686312,49.99959 40.3355683,50 40.3025042,50 L4.08628092,50 C1.87714192,50 0.0862809208,48.209139 0.0862809208,46 C0.0862809208,45.9715474 0.0865845027,45.9430956 0.0871916147,45.9146494 L0.983576819,3.91464942 C1.03000494,1.73926663 2.80678795,3.99702337e-16 4.98266613,0 Z" id="Rectangle"></path>
            <path d="M0.773118467,12.9419708 L7.5688805,46.560947 C17.6037164,50.8147854 27.1882435,50.8147854 36.3224619,46.560947 C36.3823094,46.553915 38.7053427,35.3475895 43.2915618,12.9419708" id="Path-75"></path>
            <line x1="1.06712524" y1="8.84378759" x2="43.2915618" y2="8.84378759" id="Path-76"></line>
            <line x1="6.53516922" y1="12.8115126" x2="9.57823019" y2="12.8115126" id="Line-4" stroke-linecap="square"></line>
            <line x1="14.7926858" y1="12.8115126" x2="40.2518331" y2="12.8115126" id="Line-4-Copy" stroke-linecap="square"></line>
            <line x1="17.0431953" y1="4.31100303" x2="20.0862563" y2="4.31100303" id="Line-5" stroke-linecap="square"></line>
            <line x1="24.1436709" y1="4.31100303" x2="26.679555" y2="4.31100303" id="Line-5-Copy" stroke-linecap="square"></line>
            <circle id="Oval" cx="22.1149636" cy="4.31100303" r="1.7751189"></circle>
        </g>
    </g>
</svg>