<?xml version="1.0" encoding="UTF-8"?>
<svg width="100px" height="56px" viewBox="0 0 100 56" version="1.1" xmlns="http://www.w3.org/2000/svg" xmlns:xlink="http://www.w3.org/1999/xlink">
    <title> freeze dry-kangaroo</title>
    <g id="-freeze-dry-kangaroo" stroke="none" stroke-width="1" fill="none" fill-rule="evenodd">
        <g id="daishu" transform="translate(26.000000, 6.000000)">
            <path d="M34.5869402,22.2269833 C33.0943865,24.2410082 32.6637067,25.8937655 33.2949009,27.1852554 C34.2416921,29.1224902 38.1634991,35.0566828 38.2295388,34.9210383 C39.9716129,34.1882548 40.4770925,33.1282804 39.7459775,31.741115 C37.7046982,28.446052 36.992284,26.0253139 37.6087349,24.4789008 C39.606418,21.8591408 40.3891016,18.5958799 39.9567857,14.689118 C39.8959901,14.1401896 40.2916886,13.6459017 40.8406156,13.5850936 C40.9597254,13.5718991 41.0802372,13.5802215 41.1962949,13.6100886 L45.3821255,14.6786754 L45.3821255,14.6786754 C46.6928471,13.2517336 47.2071575,12.4033663 46.9250568,12.1335736 C46.2061329,11.4920124 43.4915678,8.08049514 43.6230701,7.94644155 C43.240442,6.74130838 41.7217328,5.69283852 39.0669426,4.80103197 C36.9637134,1.02605221 34.4921775,-0.522769879 31.6523351,0.154565697 C30.972275,1.14982111 32.3149182,3.23948465 35.6802647,6.42355633 C37.0418903,12.6555073 34.2002654,16.2289783 27.1553899,17.1439695 C25.9518468,17.6025534 13.1204618,14.6159236 12.8623153,33.8117592 C12.9052058,33.8047493 3.64957615,42.4338904 0,43.8457858 C0,43.8457858 11.930987,43.9048757 17.7188609,37.1246394 C17.7188609,37.1246394 21.357913,41.2767982 25.7998136,37.1246394 C25.8640103,37.2533307 25.8867989,38.291104 25.8681793,40.2379593 C25.8459342,42.4469863 27.6186547,44.2558059 29.8276815,44.2780711 C29.8407258,44.2782026 29.8537707,44.2782703 29.8668157,44.2782743 L34.6623081,44.2782743 C35.2145913,44.2795857 35.6633707,43.8329372 35.664685,43.280654 C35.6647763,43.2422946 35.6626603,43.2039617 35.6580973,43.1658737 C35.3578706,40.5640285 33.2243244,39.2631058 29.2574585,39.2631058 C29.1132479,39.2453594 31.3211436,23.3033511 20.1327354,25.2480206" id="Path-17" stroke="#000000" stroke-width="2" stroke-linecap="round"></path>
            <path d="M33.8742828,28.5057915 C33.7242461,29.6681326 32.2185377,31.006449 29.3571576,32.5207404" id="Path-18" stroke="#000000" stroke-width="2" stroke-linecap="round"></path>
            <circle id="Oval" fill="#000000" cx="40.2005947" cy="8.91105297" r="1"></circle>
        </g>
    </g>
</svg>