<?xml version="1.0" encoding="UTF-8"?>
<svg width="100px" height="56px" viewBox="0 0 100 56" version="1.1" xmlns="http://www.w3.org/2000/svg" xmlns:xlink="http://www.w3.org/1999/xlink">
    <title> freeze dry-Lamb</title>
    <g id="-freeze-dry-Lamb" stroke="none" stroke-width="1" fill="none" fill-rule="evenodd">
        <g id="Group-2" transform="translate(31.000000, 2.000000)" stroke="#000000" stroke-width="2">
            <path d="M23.8068567,4.84875234 C23.1432714,1.61625078 21.5886068,0 19.1428628,0 C16.6971188,0 15.4008685,1.61625078 15.2541119,4.84875234 C13.6283172,3.63740126 12.175421,3.33456349 10.8954233,3.94023903 C8.97542677,4.84875234 8.69656,8.37174966 8.83599339,8.37174966 C8.97542677,8.37174966 4.07307261,12.1146212 8.83599339,14.7967845 C10.3563559,15.187665 11.9886559,14.9262354 13.7328933,14.0124956 C15.1954584,16.0634029 17.2400936,17.0888566 19.8667988,17.0888566 C21.3294953,16.8880596 23.0888453,15.8626059 25.1448488,14.0124956 C26.229739,15.0582142 27.7973527,15.3196438 29.8476901,14.7967845 C32.9231961,14.0124956 31.5814343,8.71710696 30.7145622,8.54442831 C30.6448137,8.57575378 30.3320771,4.11055131 26.5474658,3.3328736" id="Path-33"></path>
            <path d="M31.7647542,11.5630221 C36.3877766,14.0399491 38.6992879,16.1738137 38.6992879,17.9646157 C38.6992879,19.7554178 35.2326301,18.8641043 28.2993146,15.2906752" id="Path-34"></path>
            <path d="M6.74978643,11.5630221 C2.42888674,14.0799386 0.268436896,16.2319427 0.268436896,18.0190344 C0.239952059,18.8990274 2.45738228,19.0872583 5.24833664,18.0190344 C6.26197499,17.6310694 7.92208546,16.6659048 10.228668,15.1235408" id="Path-35"></path>
            <path d="M8.79054754,16.2276454 C6.66630001,23.4976505 8.06112333,27.8890668 12.9750175,29.4018942 C18.190032,30.8091263 27.5031191,31.2029395 30.5012101,25.4069886 C31.3435728,22.6324291 31.1257328,19.572648 29.8476901,16.2276454" id="Path-36"></path>
            <path d="M36.096828,21.4760593 C37.23101,23.2826796 37.23101,25.1890193 36.096828,27.1950784 C36.1943183,27.33441 41.2795384,30.621717 36.5221463,34.4228055 C36.5678528,34.7331646 38.2393497,36.3851203 35.3825864,39.5065044 C35.4055095,39.6865842 35.8885234,44.5165009 29.8476901,44.5165009 C29.8476901,44.5165009 30.0559947,50.8151087 23.8068567,47.6658048 C23.7719316,47.5985546 20.6509034,53.7949807 15.4397857,47.6658048 C15.4397857,47.6658048 10.519729,50.5840589 8.63475772,45.3934233 C8.41964482,45.0593846 3.18734578,45.2212198 3.93196099,39.5065044 C4.04058858,39.2355012 1.2936861,38.5594193 2.20841333,34.4228055 C2.1435025,34.2715927 -3.08339313,31.1332381 2.77568229,27.1950784 C2.69522235,27.0447492 0.302947804,24.2008057 2.77568229,21.4760593" id="Path-37"></path>
            <rect id="Rectangle" fill="#000000" x="12.9750175" y="17.705891" width="1.2498276" height="2.4996552" rx="0.624913799"></rect>
            <rect id="Rectangle-Copy-5" fill="#000000" x="24.4317705" y="17.705891" width="1.2498276" height="2.4996552" rx="0.624913799"></rect>
            <polygon id="Path-38" points="16.9630195 24.6390116 21.827963 24.6390116 19.4160054 28.0981978"></polygon>
            <line x1="19.4160054" y1="28.0981978" x2="19.4160054" y2="30.204167" id="Path-39"></line>
            <polyline id="Path-41" points="9.30472323 47.2348734 10.228668 52 13.5999313 52 14.7553645 48.2314463"></polyline>
            <polyline id="Path-42" points="24.4317705 48.2363094 25.0566843 52 28.2993146 52 29.2642744 47.2348734"></polyline>
        </g>
    </g>
</svg>