<?xml version="1.0" encoding="UTF-8"?>
<svg width="100px" height="56px" viewBox="0 0 100 56" version="1.1" xmlns="http://www.w3.org/2000/svg" xmlns:xlink="http://www.w3.org/1999/xlink">
    <title>pet health supplements service-vegetable based products</title>
    <g id="pet-health-supplements-service-vegetable-based-products" stroke="none" stroke-width="1" fill="none" fill-rule="evenodd" stroke-linecap="round">
        <g id="Group-13" transform="translate(27.000000, 3.000000)" stroke="#020202" stroke-width="2">
            <path d="M12.8616758,0.43792096 C11.2650871,0.43792096 10.218393,1.7777596 9.72159341,4.45743688 C8.52973214,2.02919613 6.87063387,1.67833245 4.74429862,3.40484585 C2.61796336,5.13135925 2.36889206,7.64214816 3.99708473,10.9372126 C0.253397672,13.2778567 -0.116301081,16.8266817 2.88798847,21.5836875 C3.01890078,21.9386115 -3.67495377,25.2705992 2.88798847,33.7518281 C2.95370249,33.6795023 2.28408029,38.3081139 7.96499451,39.5206436 C8.02812992,39.5417299 14.1507181,49.2900524 22.4503942,50.714286 C25.6866934,50.714286 26.855691,48.7413266 25.9573873,44.7954077 C23.0818451,37.8125743 25.6049007,33.1948522 33.5265541,30.9422415 C36.3526677,30.3812133 38.2601577,30.3812133 39.249024,30.9422415 C38.9186788,26.9844543 37.2898549,25.0055608 34.3625524,25.0055608 C35.0403697,25.0458811 42.885906,24.9909937 44.1579053,18.4951101 C45.0059049,14.164521 43.3696111,11.3826895 39.249024,10.1496155 C37.8040144,6.35482974 35.8965244,4.45743688 33.5265541,4.45743688 C33.5265541,4.45743688 32.5251949,-1.86144169 26.834474,1.36818004 C26.834474,1.36818004 21.0835508,-3.23982257 18.0201978,4.45743688 C16.1777719,1.7777596 14.4582645,0.43792096 12.8616758,0.43792096 Z" id="Path-97"></path>
            <path d="M17.2602333,4.75446431 C14.1901309,7.25126357 13.2070644,9.65894717 14.3110339,11.9775151 C14.3110339,11.9775151 10.186967,11.2512612 8.31959731,15.4695985 C8.32222581,15.4381355 7.18484819,18.8507325 8.31959731,21.0253299 C8.32222581,21.0253299 4.92144871,24.7335066 9.61624131,29.3871596 C9.37326797,29.4856404 11.4025564,41.4260992 19.0178572,49.9218753" id="Path-98"></path>
            <path d="M34.0736609,13.2153492 C31.3257142,11.2182785 28.6800524,11.4716175 26.1366752,13.9753663 C22.3216095,17.7309895 18.1589352,20.3617016 19.1722865,32.67491 C19.8478541,40.8837155 21.311085,46.8968409 23.5619794,50.714286" id="Path-99"></path>
            <path d="M19.810268,29.3191966 C22.5689469,27.7343752 24.4179052,26.9419644 25.357143,26.9419644" id="Path-100"></path>
            <path d="M23.7723216,16.7280263 C27.8647784,16.4943132 30.5061475,16.7293163 31.6964287,17.4330358" id="Path-101"></path>
            <path d="M20.6026787,22.1875001 C18.4895834,21.1543651 17.4330358,19.0412699 17.4330358,15.8482144" id="Path-102"></path>
            <path d="M20.6026787,37.0231538 C19.0439285,37.6522056 17.4591071,36.9331782 15.8482144,34.8660716" id="Path-103"></path>
            <path d="M29.3191966,8.71651791 C28.7909228,9.43254747 28.5267859,10.4890951 28.5267859,11.8861608" id="Path-104"></path>
        </g>
    </g>
</svg>