<?xml version="1.0" encoding="UTF-8"?>
<svg width="100px" height="56px" viewBox="0 0 100 56" version="1.1" xmlns="http://www.w3.org/2000/svg" xmlns:xlink="http://www.w3.org/1999/xlink">
    <title>pet health supplements service-jars</title>
    <g id="pet-health-supplements-service-jars" stroke="none" stroke-width="1" fill="none" fill-rule="evenodd" stroke-linecap="round">
        <g id="Group-14" transform="translate(32.000000, 2.000000)" stroke="#000000" stroke-width="2">
            <ellipse id="Oval" cx="17.1065119" cy="2.71361681" rx="13.5680841" ry="2.71361681"></ellipse>
            <path d="M30.6745959,2.71361681 L30.6745959,6.54078209 C30.6740991,10.2529585 27.7758651,13.3192145 24.0696101,13.5288046 C21.4072685,13.6785126 19.4118698,13.7533666 18.0834139,13.7533666 C16.5848273,13.7533666 13.951814,13.6581123 10.1843739,13.4676038 C6.46011076,13.2789659 3.53752451,10.2038775 3.5384278,6.47484021 L3.5384278,2.71361681 L3.5384278,2.71361681" id="Path-105"></path>
            <line x1="26.4560741" y1="6.65322397" x2="26.4560741" y2="10.6373779" id="Path-106"></line>
            <line x1="21.8971979" y1="7.08740266" x2="21.8971979" y2="11.0715566" id="Path-106-Copy"></line>
            <line x1="17.1212323" y1="7.08740266" x2="17.1212323" y2="11.0715566" id="Path-106-Copy-2"></line>
            <line x1="11.911088" y1="7.08740266" x2="11.911088" y2="11.0715566" id="Path-106-Copy-3"></line>
            <line x1="6.91803305" y1="6.65322397" x2="6.91803305" y2="10.6373779" id="Path-106-Copy-4"></line>
            <path d="M4.45839425,11.7066397 C1.48613142,14.5131219 0,17.5908797 0,20.939913 C0,24.2889463 0,31.5789471 0,42.8099155 C0.568538357,46.9792305 2.87454937,49.9003414 6.91803305,51.5732481 C10.9615167,53.2461549 16.8049527,53.4479139 24.448341,52.1785251 C29.8499389,51.03253 32.8289229,47.7220036 33.3852927,42.246946 C33.3915236,39.3564494 33.4286785,32.2541051 33.4967574,20.939913 C33.3801286,17.0998294 32.064924,14.0220716 29.5511435,11.7066397" id="Path-107"></path>
            <path d="M0,22.9902572 C14.6573247,25.2540072 25.8229105,25.2540072 33.4967574,22.9902572" id="Path-108"></path>
            <path d="M0,40.3574048 C14.6573247,42.6211548 25.8229105,42.6211548 33.4967574,40.3574048" id="Path-108-Copy"></path>
        </g>
    </g>
</svg>