<?xml version="1.0" encoding="UTF-8"?>
<svg width="100px" height="56px" viewBox="0 0 100 56" version="1.1" xmlns="http://www.w3.org/2000/svg" xmlns:xlink="http://www.w3.org/1999/xlink">
    <title>pet health supplements service-dairy based products</title>
    <g id="pet-health-supplements-service-dairy-based-products" stroke="none" stroke-width="1" fill="none" fill-rule="evenodd" stroke-linecap="round">
        <g id="Group" transform="translate(6.000000, 6.000000)" stroke="#000000" stroke-width="2">
            <path d="M0,44.0026302 L89,44.0026302 C87.2281229,37.6775005 84.9142828,33.1532427 82.0584796,30.4298568 C77.7747748,26.3447781 68.1531532,17.9337758 65.3919722,14.1363961 C59.0383712,7.50263023 45.6971469,-4.82836047 36.880105,1.99618148 C28.0630631,8.82072343 24.8535619,13.0026302 20.7833363,17.9337758 C18.326235,21.0026302 12.0103311,27.367909 7.44638914,29.7769973 C3.25233665,32.8706508 0.770206938,37.6125285 0,44.0026302 Z" id="Path-8"></path>
            <line x1="42.4954955" y1="8.00263023" x2="47.3063063" y2="8.00263023" id="Path-9"></line>
            <line x1="42.4954955" y1="22.0026302" x2="47.3063063" y2="22.0026302" id="Path-9-Copy"></line>
            <line x1="42.4954955" y1="36.0026302" x2="47.3063063" y2="36.0026302" id="Path-9-Copy-2"></line>
            <line x1="56.1261261" y1="36.0026302" x2="60.9369369" y2="36.0026302" id="Path-9-Copy-3"></line>
            <line x1="51.3153153" y1="29.0026302" x2="56.1261261" y2="29.0026302" id="Path-9-Copy-4"></line>
            <line x1="63.3423423" y1="29.0026302" x2="68.1531532" y2="29.0026302" id="Path-9-Copy-5"></line>
            <line x1="71.3603604" y1="36.0026302" x2="76.1711712" y2="36.0026302" id="Path-9-Copy-6"></line>
            <line x1="57.7297297" y1="21.0026302" x2="62.5405405" y2="21.0026302" id="Path-9-Copy-7"></line>
            <line x1="51.3153153" y1="13.0026302" x2="56.1261261" y2="13.0026302" id="Path-9-Copy-8"></line>
            <line x1="32.8738739" y1="13.0026302" x2="37.6846847" y2="13.0026302" id="Path-9-Copy-9"></line>
            <line x1="32.8738739" y1="29.0026302" x2="37.6846847" y2="29.0026302" id="Path-9-Copy-10"></line>
            <line x1="20.8468468" y1="29.0026302" x2="25.6576577" y2="29.0026302" id="Path-9-Copy-11"></line>
            <line x1="28.0630631" y1="36.0026302" x2="32.8738739" y2="36.0026302" id="Path-9-Copy-12"></line>
            <line x1="12.8288288" y1="36.0026302" x2="17.6396396" y2="36.0026302" id="Path-9-Copy-13"></line>
            <line x1="26.4594595" y1="22.0026302" x2="31.2702703" y2="22.0026302" id="Path-9-Copy-14"></line>
        </g>
    </g>
</svg>