<?xml version="1.0" encoding="UTF-8"?>
<svg width="100px" height="56px" viewBox="0 0 100 56" version="1.1" xmlns="http://www.w3.org/2000/svg" xmlns:xlink="http://www.w3.org/1999/xlink">
    <title>pet health supplements service-meat based products</title>
    <g id="pet-health-supplements-service-meat-based-products" stroke="none" stroke-width="1" fill="none" fill-rule="evenodd">
        <g id="Group-12" transform="translate(19.000000, 8.000000)" stroke="#000000" stroke-width="2">
            <path d="M57.2832371,12.4904746 C53.1538556,9.73500748 48.4159398,7.84873789 44.9407492,4.89360753 C41.4655587,1.93847717 37.8005428,-4.7518205 11.5238334,5.46905566 C2.33948503,9.25379218 -7.6361978,34.491561 8.76631336,39.2762133 C15.4993106,40.4601735 28.6706271,40.7648449 48.2802626,40.1902277 C54.6426028,40.3569812 59.0248937,37.0729535 61.4271355,30.3381447 C63.4478292,19.6026938 61.4126187,15.2459417 57.2832371,12.4904746 Z" id="Path-85"></path>
            <path d="M31.1078165,1.9863893e-13 C20.386865,5.66712625 16.8132145,15.5041589 20.386865,29.511098 C23.1146448,35.324993 27.8380526,38.9785813 34.5570885,40.471863" id="Path-91"></path>
            <path d="M22.4000003,1.84267801 C15.4935652,5.69952773 11.1229917,12.6342744 9.28827979,22.6469181 C8.59201351,29.3513083 11.4915426,35.2929566 17.9868672,40.471863" id="Path-93"></path>
            <path d="M48.5727723,13.1330815 C44.0154972,11.0231805 40.2276014,5.49998226 39.5090111,5.49998226 C38.7904208,5.49998226 32.2920775,-0.349146693 26.8019173,10.4040619 C21.3117571,21.1572705 23.7166822,30.5487855 31.1078165,34.0367199 C36.0352394,36.3620096 43.8008728,36.3620096 54.4047168,34.0367199 C56.4994788,33.3782054 57.5468598,29.3926548 57.5468598,22.0800681 C57.5468598,16.7814943 53.1300474,15.2429824 48.5727723,13.1330815 Z" id="Path-94"></path>
            <path d="M56.79513,30.1072882 C55.96795,27.3665468 53.5608959,26.1887764 49.5739678,26.573977 C43.7945142,27.2470261 40.8281307,25.8999148 40.6748172,22.532643 C41.0959302,19.8848458 40.5073272,17.7054599 38.9090083,15.9944855 C37.3106894,14.2835112 37.3106894,10.8979922 38.9090083,5.83792873" id="Path-95"></path>
            <path d="M40.6748172,21.1572705 C36.3400999,20.3418069 33.6619205,20.734863 32.6402789,22.336439 C31.1078165,24.738803 27.1989961,29.1716718 26.0646563,29.1716718" id="Path-96"></path>
        </g>
    </g>
</svg>