<?xml version="1.0" encoding="UTF-8"?>
<svg width="53px" height="53px" viewBox="0 0 53 53" version="1.1" xmlns="http://www.w3.org/2000/svg" xmlns:xlink="http://www.w3.org/1999/xlink">
    <title>Group 19</title>
    <g id="Page-2" stroke="none" stroke-width="1" fill="none" fill-rule="evenodd">
        <g id="service-Manufacturing" transform="translate(-1528.000000, -2156.000000)">
            <g id="Group-19" transform="translate(1529.000000, 2157.000000)">
                <circle id="Oval-Copy-2" stroke="#0D0D0D" stroke-width="2" cx="25.5" cy="25.5" r="25.5"></circle>
                <g id="500g" transform="translate(6.752000, 21.008000)" fill="#2C3B4E" fill-rule="nonzero">
                    <path d="M8.656,7.6 C8.656,7.04533333 8.56533333,6.552 8.384,6.12 C8.20266667,5.688 7.952,5.32 7.632,5.016 C7.312,4.712 6.936,4.48 6.504,4.32 C6.072,4.16 5.61066667,4.08 5.12,4.08 C4.544,4.08 4.03733333,4.17333333 3.6,4.36 C3.16266667,4.54666667 2.84266667,4.768 2.64,5.024 L2.64,2.224 L7.92,2.224 L7.92,0.32 L0.352,0.32 L0.352,6.24 L2.032,6.848 C2.256,6.51733333 2.56,6.26666667 2.944,6.096 C3.328,5.92533333 3.73866667,5.84 4.176,5.84 C4.848,5.84 5.37866667,5.98666667 5.768,6.28 C6.15733333,6.57333333 6.352,7.02933333 6.352,7.648 C6.352,7.872 6.30933333,8.088 6.224,8.296 C6.13866667,8.504 6.008,8.69333333 5.832,8.864 C5.656,9.03466667 5.44,9.17066667 5.184,9.272 C4.928,9.37333333 4.624,9.424 4.272,9.424 C3.65333333,9.424 3.09333333,9.27733333 2.592,8.984 C2.09066667,8.69066667 1.68533333,8.34666667 1.376,7.952 L0,9.52 C0.405333333,10.0426667 0.976,10.472 1.712,10.808 C2.448,11.144 3.31733333,11.312 4.32,11.312 C4.97066667,11.312 5.56533333,11.2186667 6.104,11.032 C6.64266667,10.8453333 7.09866667,10.5866667 7.472,10.256 C7.84533333,9.92533333 8.136,9.53333333 8.344,9.08 C8.552,8.62666667 8.656,8.13333333 8.656,7.6 Z" id="Path"></path>
                    <path d="M19.12,5.664 C19.12,4.98133333 19.0293333,4.30133333 18.848,3.624 C18.6666667,2.94666667 18.384,2.34133333 18,1.808 C17.616,1.27466667 17.128,0.84 16.536,0.504 C15.944,0.168 15.2426667,0 14.432,0 C13.6106667,0 12.9066667,0.168 12.32,0.504 C11.7333333,0.84 11.248,1.27466667 10.864,1.808 C10.48,2.34133333 10.1973333,2.94666667 10.016,3.624 C9.83466667,4.30133333 9.744,4.98133333 9.744,5.664 C9.744,6.34666667 9.83466667,7.024 10.016,7.696 C10.1973333,8.368 10.48,8.97333333 10.864,9.512 C11.248,10.0506667 11.7333333,10.4853333 12.32,10.816 C12.9066667,11.1466667 13.6106667,11.312 14.432,11.312 C15.2426667,11.312 15.944,11.1466667 16.536,10.816 C17.128,10.4853333 17.616,10.0506667 18,9.512 C18.384,8.97333333 18.6666667,8.368 18.848,7.696 C19.0293333,7.024 19.12,6.34666667 19.12,5.664 Z M16.784,5.664 C16.784,6.06933333 16.7493333,6.49066667 16.68,6.928 C16.6106667,7.36533333 16.488,7.77066667 16.312,8.144 C16.136,8.51733333 15.896,8.824 15.592,9.064 C15.288,9.304 14.9013333,9.424 14.432,9.424 C13.9626667,9.424 13.576,9.304 13.272,9.064 C12.968,8.824 12.728,8.51733333 12.552,8.144 C12.376,7.77066667 12.2533333,7.36533333 12.184,6.928 C12.1146667,6.49066667 12.08,6.06933333 12.08,5.664 C12.08,5.25866667 12.1146667,4.83466667 12.184,4.392 C12.2533333,3.94933333 12.376,3.544 12.552,3.176 C12.728,2.808 12.968,2.504 13.272,2.264 C13.576,2.024 13.9626667,1.904 14.432,1.904 C14.9013333,1.904 15.288,2.024 15.592,2.264 C15.896,2.504 16.136,2.808 16.312,3.176 C16.488,3.544 16.6106667,3.94933333 16.68,4.392 C16.7493333,4.83466667 16.784,5.25866667 16.784,5.664 Z" id="Shape"></path>
                    <path d="M29.232,5.664 C29.232,4.98133333 29.1413333,4.30133333 28.96,3.624 C28.7786667,2.94666667 28.496,2.34133333 28.112,1.808 C27.728,1.27466667 27.24,0.84 26.648,0.504 C26.056,0.168 25.3546667,0 24.544,0 C23.7226667,0 23.0186667,0.168 22.432,0.504 C21.8453333,0.84 21.36,1.27466667 20.976,1.808 C20.592,2.34133333 20.3093333,2.94666667 20.128,3.624 C19.9466667,4.30133333 19.856,4.98133333 19.856,5.664 C19.856,6.34666667 19.9466667,7.024 20.128,7.696 C20.3093333,8.368 20.592,8.97333333 20.976,9.512 C21.36,10.0506667 21.8453333,10.4853333 22.432,10.816 C23.0186667,11.1466667 23.7226667,11.312 24.544,11.312 C25.3546667,11.312 26.056,11.1466667 26.648,10.816 C27.24,10.4853333 27.728,10.0506667 28.112,9.512 C28.496,8.97333333 28.7786667,8.368 28.96,7.696 C29.1413333,7.024 29.232,6.34666667 29.232,5.664 Z M26.896,5.664 C26.896,6.06933333 26.8613333,6.49066667 26.792,6.928 C26.7226667,7.36533333 26.6,7.77066667 26.424,8.144 C26.248,8.51733333 26.008,8.824 25.704,9.064 C25.4,9.304 25.0133333,9.424 24.544,9.424 C24.0746667,9.424 23.688,9.304 23.384,9.064 C23.08,8.824 22.84,8.51733333 22.664,8.144 C22.488,7.77066667 22.3653333,7.36533333 22.296,6.928 C22.2266667,6.49066667 22.192,6.06933333 22.192,5.664 C22.192,5.25866667 22.2266667,4.83466667 22.296,4.392 C22.3653333,3.94933333 22.488,3.544 22.664,3.176 C22.84,2.808 23.08,2.504 23.384,2.264 C23.688,2.024 24.0746667,1.904 24.544,1.904 C25.0133333,1.904 25.4,2.024 25.704,2.264 C26.008,2.504 26.248,2.808 26.424,3.176 C26.6,3.544 26.7226667,3.94933333 26.792,4.392 C26.8613333,4.83466667 26.896,5.25866667 26.896,5.664 Z" id="Shape"></path>
                    <path d="M38.144,10.4 L38.144,3.264 L36.064,3.264 L36.064,4.224 C35.8506667,3.84 35.5386667,3.54666667 35.128,3.344 C34.7173333,3.14133333 34.2453333,3.04 33.712,3.04 C33.232,3.04 32.7786667,3.128 32.352,3.304 C31.9253333,3.48 31.552,3.73866667 31.232,4.08 C30.912,4.42133333 30.6613333,4.84 30.48,5.336 C30.2986667,5.832 30.208,6.39466667 30.208,7.024 C30.208,7.664 30.3013333,8.22933333 30.488,8.72 C30.6746667,9.21066667 30.9253333,9.624 31.24,9.96 C31.5546667,10.296 31.9253333,10.552 32.352,10.728 C32.7786667,10.904 33.232,10.992 33.712,10.992 C34.2453333,10.992 34.7173333,10.8906667 35.128,10.688 C35.5386667,10.4853333 35.8506667,10.192 36.064,9.808 L36.064,10.768 C36.064,11.1306667 35.9973333,11.432 35.864,11.672 C35.7306667,11.912 35.5626667,12.104 35.36,12.248 C35.1573333,12.392 34.9306667,12.4933333 34.68,12.552 C34.4293333,12.6106667 34.1866667,12.64 33.952,12.64 C33.536,12.64 33.12,12.552 32.704,12.376 C32.288,12.2 31.92,11.9306667 31.6,11.568 L30.56,12.976 C31.104,13.4773333 31.6746667,13.824 32.272,14.016 C32.8693333,14.208 33.4986667,14.304 34.16,14.304 C34.64,14.304 35.1173333,14.2426667 35.592,14.12 C36.0666667,13.9973333 36.4933333,13.7866667 36.872,13.488 C37.2506667,13.1893333 37.5573333,12.7893333 37.792,12.288 C38.0266667,11.7866667 38.144,11.1573333 38.144,10.4 Z M36.064,8.512 C35.904,8.75733333 35.672,8.95466667 35.368,9.104 C35.064,9.25333333 34.7306667,9.328 34.368,9.328 C33.76,9.328 33.272,9.12 32.904,8.704 C32.536,8.288 32.352,7.728 32.352,7.024 C32.352,6.32 32.536,5.76 32.904,5.344 C33.272,4.928 33.76,4.72 34.368,4.72 C34.7306667,4.72 35.064,4.792 35.368,4.936 C35.672,5.08 35.904,5.27466667 36.064,5.52 L36.064,8.512 Z" id="Shape"></path>
                </g>
            </g>
        </g>
    </g>
</svg>