<?xml version="1.0" encoding="UTF-8"?>
<svg width="100px" height="56px" viewBox="0 0 100 56" version="1.1" xmlns="http://www.w3.org/2000/svg" xmlns:xlink="http://www.w3.org/1999/xlink">
    <title>pet health supplements service-sachet</title>
    <g id="pet-health-supplements-service-sachet" stroke="none" stroke-width="1" fill="none" fill-rule="evenodd">
        <g id="Group-15" transform="translate(23.000000, 2.000000)">
            <polyline id="Path-109" stroke="#000000" stroke-width="2" stroke-linecap="round" points="32.3907835 37.2666991 17.6599891 51.87176 13.0414344 51.87176 13.0414344 48.1146724 9.33421536 48.1146724 9.33421536 43.5408578 4.65477928 43.5408578 4.65477928 39.0172275 0 39.0172275 0 34.9417924 34.8414237 0 39.3931075 0 39.3931075 3.58888168 43.1373453 3.58888168 43.1373453 8.28459626 47.4385189 8.28459626 47.4385189 12.7010892 52.1384305 12.7010892 52.1384305 17.4708962 39.3931075 30.889867"></polyline>
            <line x1="4.59255838" y1="30.889867" x2="21.0433974" y2="47.6502402" id="Path-110" stroke="#000000" stroke-width="2"></line>
            <line x1="31.2848533" y1="3.58888168" x2="49.1885306" y2="21.146292" id="Path-111" stroke="#000000" stroke-width="2"></line>
            <line x1="24.3872992" y1="17.3839898" x2="34.0880592" y2="26.8971317" id="Path" stroke="#000000" stroke-width="2" stroke-linecap="round"></line>
            <line x1="19.3708963" y1="24.2815438" x2="29.0716563" y2="33.7946858" id="Path-Copy" stroke="#000000" stroke-width="2" stroke-linecap="round"></line>
            <line x1="14.3544934" y1="29.9249971" x2="24.0552533" y2="39.4381391" id="Path-Copy-2" stroke="#000000" stroke-width="2" stroke-linecap="round"></line>
            <line x1="30.6578029" y1="11.7405365" x2="40.4363133" y2="21.3299251" id="Path" stroke="#000000" stroke-width="2" stroke-linecap="round"></line>
            <circle id="Oval" fill="#000000" cx="35.835121" cy="34.9414001" r="1.25410074"></circle>
        </g>
    </g>
</svg>