<?xml version="1.0" encoding="UTF-8"?>
<svg width="53px" height="53px" viewBox="0 0 53 53" version="1.1" xmlns="http://www.w3.org/2000/svg" xmlns:xlink="http://www.w3.org/1999/xlink">
    <title>Group 17</title>
    <g id="Page-2" stroke="none" stroke-width="1" fill="none" fill-rule="evenodd">
        <g id="service-Manufacturing" transform="translate(-1250.000000, -2159.000000)">
            <g id="Group-17" transform="translate(1251.000000, 2160.000000)">
                <circle id="Oval" stroke="#0D0D0D" stroke-width="2" cx="25.5" cy="25.5" r="25.5"></circle>
                <g id="210g" transform="translate(6.800000, 21.008000)" fill="#2C3B4E" fill-rule="nonzero">
                    <path d="M8.496,10.992 L8.496,9.104 L3.344,9.104 C3.344,9.104 3.424,9.03466667 3.584,8.896 C3.744,8.75733333 3.95733333,8.57866667 4.224,8.36 C4.49066667,8.14133333 4.8,7.89333333 5.152,7.616 C5.504,7.33866667 5.86666667,7.06133333 6.24,6.784 C6.48533333,6.60266667 6.73866667,6.38933333 7,6.144 C7.26133333,5.89866667 7.496,5.62933333 7.704,5.336 C7.912,5.04266667 8.08266667,4.72533333 8.216,4.384 C8.34933333,4.04266667 8.416,3.68533333 8.416,3.312 C8.416,2.27733333 8.05333333,1.46666667 7.328,0.88 C6.60266667,0.293333333 5.58933333,0 4.288,0 C3.86133333,0 3.42933333,0.0453333333 2.992,0.136 C2.55466667,0.226666667 2.14133333,0.349333333 1.752,0.504 C1.36266667,0.658666667 1.01333333,0.84 0.704,1.048 C0.394666667,1.256 0.16,1.48266667 0,1.728 L1.344,3.248 C1.58933333,2.896 1.96266667,2.584 2.464,2.312 C2.96533333,2.04 3.51466667,1.904 4.112,1.904 C4.656,1.904 5.12,2.03466667 5.504,2.296 C5.888,2.55733333 6.08,2.96533333 6.08,3.52 C6.08,3.92533333 5.90666667,4.31733333 5.56,4.696 C5.21333333,5.07466667 4.74666667,5.488 4.16,5.936 C3.63733333,6.34133333 3.13333333,6.744 2.648,7.144 C2.16266667,7.544 1.73333333,7.90133333 1.36,8.216 C0.986666667,8.53066667 0.688,8.78666667 0.464,8.984 C0.24,9.18133333 0.128,9.28 0.128,9.28 L0.128,10.992 L8.496,10.992 Z" id="Path"></path>
                    <polygon id="Path" points="16.448 10.992 16.448 0.32 14.464 0.32 11.168 3.584 12.56 5.008 14.128 3.344 14.128 10.992"></polygon>
                    <path d="M29.184,5.664 C29.184,4.98133333 29.0933333,4.30133333 28.912,3.624 C28.7306667,2.94666667 28.448,2.34133333 28.064,1.808 C27.68,1.27466667 27.192,0.84 26.6,0.504 C26.008,0.168 25.3066667,0 24.496,0 C23.6746667,0 22.9706667,0.168 22.384,0.504 C21.7973333,0.84 21.312,1.27466667 20.928,1.808 C20.544,2.34133333 20.2613333,2.94666667 20.08,3.624 C19.8986667,4.30133333 19.808,4.98133333 19.808,5.664 C19.808,6.34666667 19.8986667,7.024 20.08,7.696 C20.2613333,8.368 20.544,8.97333333 20.928,9.512 C21.312,10.0506667 21.7973333,10.4853333 22.384,10.816 C22.9706667,11.1466667 23.6746667,11.312 24.496,11.312 C25.3066667,11.312 26.008,11.1466667 26.6,10.816 C27.192,10.4853333 27.68,10.0506667 28.064,9.512 C28.448,8.97333333 28.7306667,8.368 28.912,7.696 C29.0933333,7.024 29.184,6.34666667 29.184,5.664 Z M26.848,5.664 C26.848,6.06933333 26.8133333,6.49066667 26.744,6.928 C26.6746667,7.36533333 26.552,7.77066667 26.376,8.144 C26.2,8.51733333 25.96,8.824 25.656,9.064 C25.352,9.304 24.9653333,9.424 24.496,9.424 C24.0266667,9.424 23.64,9.304 23.336,9.064 C23.032,8.824 22.792,8.51733333 22.616,8.144 C22.44,7.77066667 22.3173333,7.36533333 22.248,6.928 C22.1786667,6.49066667 22.144,6.06933333 22.144,5.664 C22.144,5.25866667 22.1786667,4.83466667 22.248,4.392 C22.3173333,3.94933333 22.44,3.544 22.616,3.176 C22.792,2.808 23.032,2.504 23.336,2.264 C23.64,2.024 24.0266667,1.904 24.496,1.904 C24.9653333,1.904 25.352,2.024 25.656,2.264 C25.96,2.504 26.2,2.808 26.376,3.176 C26.552,3.544 26.6746667,3.94933333 26.744,4.392 C26.8133333,4.83466667 26.848,5.25866667 26.848,5.664 Z" id="Shape"></path>
                    <path d="M38.096,10.4 L38.096,3.264 L36.016,3.264 L36.016,4.224 C35.8026667,3.84 35.4906667,3.54666667 35.08,3.344 C34.6693333,3.14133333 34.1973333,3.04 33.664,3.04 C33.184,3.04 32.7306667,3.128 32.304,3.304 C31.8773333,3.48 31.504,3.73866667 31.184,4.08 C30.864,4.42133333 30.6133333,4.84 30.432,5.336 C30.2506667,5.832 30.16,6.39466667 30.16,7.024 C30.16,7.664 30.2533333,8.22933333 30.44,8.72 C30.6266667,9.21066667 30.8773333,9.624 31.192,9.96 C31.5066667,10.296 31.8773333,10.552 32.304,10.728 C32.7306667,10.904 33.184,10.992 33.664,10.992 C34.1973333,10.992 34.6693333,10.8906667 35.08,10.688 C35.4906667,10.4853333 35.8026667,10.192 36.016,9.808 L36.016,10.768 C36.016,11.1306667 35.9493333,11.432 35.816,11.672 C35.6826667,11.912 35.5146667,12.104 35.312,12.248 C35.1093333,12.392 34.8826667,12.4933333 34.632,12.552 C34.3813333,12.6106667 34.1386667,12.64 33.904,12.64 C33.488,12.64 33.072,12.552 32.656,12.376 C32.24,12.2 31.872,11.9306667 31.552,11.568 L30.512,12.976 C31.056,13.4773333 31.6266667,13.824 32.224,14.016 C32.8213333,14.208 33.4506667,14.304 34.112,14.304 C34.592,14.304 35.0693333,14.2426667 35.544,14.12 C36.0186667,13.9973333 36.4453333,13.7866667 36.824,13.488 C37.2026667,13.1893333 37.5093333,12.7893333 37.744,12.288 C37.9786667,11.7866667 38.096,11.1573333 38.096,10.4 Z M36.016,8.512 C35.856,8.75733333 35.624,8.95466667 35.32,9.104 C35.016,9.25333333 34.6826667,9.328 34.32,9.328 C33.712,9.328 33.224,9.12 32.856,8.704 C32.488,8.288 32.304,7.728 32.304,7.024 C32.304,6.32 32.488,5.76 32.856,5.344 C33.224,4.928 33.712,4.72 34.32,4.72 C34.6826667,4.72 35.016,4.792 35.32,4.936 C35.624,5.08 35.856,5.27466667 36.016,5.52 L36.016,8.512 Z" id="Shape"></path>
                </g>
            </g>
        </g>
    </g>
</svg>